<?xml version="1.0" encoding="utf-8"?>
<!-- Uploaded to: SVG Repo, www.svgrepo.com, Generator: SVG Repo Mixer Tools -->
<svg width="800px" height="800px" viewBox="-15.2 0 175.78 175.78" xmlns="http://www.w3.org/2000/svg">

<defs>

<style>.cls-1{fill:#ffffff;}</style>

</defs>

<g id="Layer_2" data-name="Layer 2">

<g id="Layer_1-2" data-name="Layer 1">

<path d="M1.12,171.08C-.94,164.74.34,159.62,1,154.59c2-14.17,3.85-28.37,6.45-42.42,2.66-14.39,3.11-29,5.12-43.43.43-3.12.92-6.23,1.41-9.34,1.08-6.89,4.55-11.52,11.88-12.5a20.1,20.1,0,0,0,2.51-.55c.24-.06.42-.34,1.14-1,0-2,.2-4.57,0-7C27.93,21.25,36.58,8.07,53,3.05c4.89-1.49,9.72-3.24,15.07-3,18.72.7,35.72,15,37.82,34.57.15,1.42.38,2.82.64,4.69a25.6,25.6,0,0,0,10.67,1.18c2.73-.33,4.38.88,5.2,3.36.63,1.9,1.63,3.82,1.66,5.74.08,6.16,2.48,11.7,4,17.48,3.52,13.26,6.73,26.6,10.26,39.86a226.07,226.07,0,0,1,6.17,32,103,103,0,0,1,.33,22.93,16.82,16.82,0,0,1-9.14,5c-15.37,3.48-30.82,6.42-46.63,7-7.44.27-14.87.8-22.3,1.06-11.15.39-22.3,1-33.45.88C22.47,175.66,11.78,173.69,1.12,171.08Zm135.22-12.56a100.21,100.21,0,0,0-2.45-33.34C129.59,107.1,125.36,89,120.75,71c-1.82-7.13-4.59-14-6.89-20.88a48.78,48.78,0,0,0-6.39-1.27c-3.14-.17-6.3-.09-9.44,0-8.58.34-17.16.76-25.73,1.16-2.29.1-4.59.14-6.87.35-10.25,1-20.5,2-30.75,2.94a37.61,37.61,0,0,0-13.39,3.41,243.72,243.72,0,0,0-3.51,30.7c-.24,4.54-.18,9.13-.78,13.62-1.22,9.07-2.83,18.08-4.2,27.13q-2.37,15.69-4.59,31.41a12.37,12.37,0,0,0,.31,2.84,18.29,18.29,0,0,0,3.73,1.64c4.48.9,9,2.07,13.51,2.29,11.1.56,22.23.87,33.35.85,6.84,0,13.7-.73,20.54-1.27,10-.78,20-1.35,29.91-2.63C118.33,162.21,127,160.24,136.34,158.52ZM98.81,39.67c-.76-3.5-1.15-6-1.87-8.46-6-20.57-20.88-28.2-41-21a32,32,0,0,0-8.34,4.25c-4.15,3.08-7.74,6.86-9,12.11C37,32.64,36,38.76,38.5,45.07a25.56,25.56,0,0,0,3.8,0,9.31,9.31,0,0,0,2.26-1,49.67,49.67,0,0,0,0-5.19,22.24,22.24,0,0,1,16-23.5c9.62-2.93,20.12.84,24.87,9.62,2.68,5,4.91,10.16,7.47,15.52ZM82.69,41.55A25.65,25.65,0,0,0,77.8,26.34a11.84,11.84,0,0,0-12-5c-5.37.84-9.06,4.61-11.78,9.21a14.63,14.63,0,0,0-1.26,13.28Z"/>

<path class="cls-1" d="M136.34,158.52c-9.35,1.72-18,3.69-26.78,4.82-9.92,1.28-19.93,1.85-29.91,2.63-6.84.54-13.7,1.26-20.54,1.27-11.12,0-22.25-.29-33.35-.85-4.53-.22-9-1.39-13.51-2.29a18.29,18.29,0,0,1-3.73-1.64,12.37,12.37,0,0,1-.31-2.84q2.23-15.72,4.59-31.41c1.37-9.05,3-18.06,4.2-27.13.6-4.49.54-9.08.78-13.62a243.72,243.72,0,0,1,3.51-30.7,37.61,37.61,0,0,1,13.39-3.41c10.25-1,20.5-2,30.75-2.94,2.28-.21,4.58-.25,6.87-.35,8.57-.4,17.15-.82,25.73-1.16,3.14-.13,6.3-.21,9.44,0a48.78,48.78,0,0,1,6.39,1.27c2.3,6.86,5.07,13.75,6.89,20.88,4.61,18,8.84,36.09,13.14,54.17A100.21,100.21,0,0,1,136.34,158.52Z"/>

<path class="cls-1" d="M98.81,39.67l-5.92.78c-2.56-5.36-4.79-10.56-7.47-15.52-4.75-8.78-15.25-12.55-24.87-9.62a22.24,22.24,0,0,0-16,23.5,49.67,49.67,0,0,1,0,5.19,9.31,9.31,0,0,1-2.26,1,25.56,25.56,0,0,1-3.8,0c-2.5-6.31-1.48-12.43,0-18.5,1.31-5.25,4.9-9,9-12.11a32,32,0,0,1,8.34-4.25c20.14-7.2,35,.43,41,21C97.66,33.64,98.05,36.17,98.81,39.67Z"/>

</g>

</g>

</svg>